<?xml version="1.0" encoding="utf-8"?>
<svg height="559pt" preserveAspectRatio="xMidYMid meet" viewBox="0 0 1500 559" width="1500pt" xmlns="http://www.w3.org/2000/svg"><g transform="matrix(.1 0 0 -.1 0 559)" fill="#32509c"><path d="m9140 5284c-19-2-84-9-143-14-437-43-706-189-846-460-89-173-125-359-125-655 0-313 34-498 126-685 94-191 254-321 484-393 208-66 342-79 1269-127 110-6 228-17 263-25 161-38 247-125 281-284 31-147 22-393-21-521-17-51-33-77-77-121-93-93-199-122-507-140-224-13-613 1-740 26-112 22-199 68-245 129-58 76-71 134-76 339l-5 177h-389-389v-137c0-445 86-717 287-903 38-36 95-80 127-99 133-79 351-139 586-161 322-29 1087-21 1350 15 384 53 612 181 745 419 44 80 99 245 122 371 26 144 26 696 0 832-54 284-155 443-342 540-216 112-455 152-1180 198-554 35-696 62-793 149-51 47-78 110-93 221-15 117-7 331 15 410 45 158 158 224 438 254 127 14 694 14 795 0 96-13 171-39 217-74 76-58 116-196 116-396v-89h385 385v156c0 560-200 874-630 989-202 53-263 58-830 60-289 2-541 1-560-1z"/><path d="m0 3255v-2005h1375 1375v330 330h-995-995v530 530h935 935v320 320h-935-935v495 495h985 985v330 330h-1365-1365z"/><path d="m4166 3267c-362-1095-661-1998-663-2004-4-10 80-13 399-13h404l124 375 124 375 859-2 860-3 128-370 127-370 397-3c370-2 397-1 391 15-12 31-1346 3984-1346 3989 0 2-258 4-572 4h-573zm1589 363c184-558 335-1018 335-1022 0-5-304-8-675-8s-675 3-675 8c0 4 68 214 151 467 384 1174 522 1589 525 1580 2-5 155-467 339-1025z"/><path d="m12240 3255v-2005h1380 1380v330 330h-990-990v530 530h935 935v320 320h-935-935v495 495h985 985v330 330h-1375-1375z"/><path d="m8614 850c-40-16-54-49-54-127v-73h-30c-27 0-30-3-30-30s3-30 30-30h30v-210-210h30 30v210 210h55c54 0 55 0 55 30s0 30-56 30h-57l6 56c7 67 18 82 68 90 35 6 39 10 39 35 0 28-2 29-47 28-27 0-58-4-69-9z"/><path d="m9101 848c-62-23-76-55-76-172 0-158 13-172 177-191 64-8 118-19 133-29 23-15 25-22 25-96 0-112-9-120-134-120-120 0-137 11-144 93l-4 57h-36-35l5-71c9-126 48-154 213-154 177 1 209 31 210 195 0 155-19 174-192 195-134 16-145 26-145 121 0 93 14 104 129 104 76 0 86-2 108-25 17-16 25-35 25-60 0-33 2-35 35-35 35 0 35 0 34 43 0 59-19 107-51 130-23 17-46 21-135 24-70 2-120-1-142-9z"/><path d="m0 510v-340h175 175v35 35h-145-145v125 125h140 140v35 35h-140-140v110 110h145 145v35 35h-175-175z"/><path d="m3796 833c-13-46-198-638-203-650-4-11 3-14 37-11l43 3 20 68 20 67h141 142l19-70 19-70h38c21 0 38 3 38 8 1 4-45 157-102 339l-103 333h-52c-41 0-53-4-57-17zm118-258 53-180-110-3c-60-1-111-1-113 1s21 86 51 187 55 186 56 189c1 10 7-8 63-194z"/><path d="m11310 510v-340h185 185v35 35h-150-150v125 125h140 140v35 35h-140-140v110 110h150 150v35 35h-185-185z"/><path d="m12930 510v-340h35 35v340 340h-35-35z"/><path d="m6500 705c0-52-1-55-25-55-21 0-25-5-25-30s4-30 25-30h25v-193c0-221 0-222 82-233 99-14 148 30 148 131 0 43-1 45-30 45-27 0-30-3-30-29 0-16-4-42-10-56-9-23-15-26-47-23-48 4-51 13-52 206l-1 152h80 80v30 30h-80-80v55c0 54 0 55-30 55s-30-1-30-55z"/><path d="m10750 705c0-52-1-55-25-55-21 0-25-5-25-30s4-30 25-30h25v-180c0-112 4-188 11-204 19-40 103-59 163-36 36 13 54 47 62 113l7 57h-37c-36 0-36 0-36-43 0-49-13-67-50-67-47 0-50 12-50 192v168h75 75v30 30h-75-75v55 55h-35-35z"/><path d="m966 639c-21-17-26-18-26-5 0 12-10 16-35 16h-35v-240-240h35 35v180c0 191 6 220 47 239 55 25 97 2 107-59 6-36 9-40 36-40 28 0 30 2 30 40 0 51-22 105-48 119-36 19-116 13-146-10z"/><path d="m1285 646c-52-24-65-47-77-142-14-113 0-254 29-293 29-38 85-54 172-48 130 10 149 43 150 252 0 206-22 238-162 243-54 1-92-3-112-12zm176-75c35-43 37-267 3-318-12-20-23-23-78-23-93 0-100 11-104 164-5 183 10 209 118 201 30-2 50-10 61-24z"/><path d="m1757 641c-29-15-37-16-37-5 0 9-12 14-35 14h-35v-325-325h35 35v99 99l38-20c28-15 50-18 93-15 126 11 154 58 153 257 0 144-14 188-66 220-44 26-130 27-181 1zm133-61c28-15 40-65 40-170 0-117-11-154-51-170-39-17-107-7-133 20-19 19-21 32-21 151v131l28 24c30 26 101 33 137 14z"/><path d="m2153 644c-56-28-68-69-68-234 0-162 10-202 56-226 67-34 210-29 255 9 18 16 26 36 31 74l6 53h-37c-31 0-36-3-36-23 0-12-7-33-16-45-13-19-24-22-78-22-35 0-70 6-80 13-18 13-35 71-36 120v27h141 142l-5 95c-6 107-20 139-73 161-46 19-161 18-202-2zm180-72c11-12 21-39 24-66l6-46h-107-107l7 48c7 52 25 78 58 86 40 8 99-2 119-22z"/><path d="m2583 645c-37-16-48-34-58-92l-7-43h35c30 0 35 4 43 32 13 44 47 60 109 54 66-7 85-30 85-102v-53l-27 15c-40 20-150 18-193-4-19-9-40-28-47-42-17-34-16-143 1-184 24-59 131-83 221-51 24 9 41 11 43 5s19-10 38-10h34l-1 193c0 222-7 253-59 279-43 22-170 24-217 3zm150-245c32 0 57-37 57-83 0-64-24-82-107-82-56 0-68 4-84 24-22 27-25 89-6 115 14 20 71 37 102 30 11-2 28-4 38-4z"/><path d="m3048 636c-36-24-38-24-38-6 0 16-7 20-30 20h-30v-240-240h29 29l4 178c4 203 11 224 79 242 46 13 81 5 106-22 16-18 18-43 21-209l4-189h34 34v173c-1 202-8 250-44 285-22 22-37 27-93 30-60 3-72 1-105-22z"/><path d="m4223 645c-17-7-36-22-42-34-12-21-15-149-5-176 11-27 58-44 143-51 103-9 117-18 114-80-2-63-18-74-104-74-59 0-70 3-83 22-9 12-16 35-16 50 0 25-3 28-36 28h-37l7-52c4-29 14-63 22-75 38-59 240-57 292 2 19 23 22 37 22 110 0 109-12 120-138 130-114 10-122 14-122 73 0 26 4 53 9 60 5 8 34 16 67 18 72 6 108-10 112-49 3-24 8-27 38-27 31 0 34 2 34 30 0 46-25 86-61 99-44 15-177 13-216-4z"/><path d="m4653 645c-43-19-53-42-53-128 0-57 4-80 18-96 18-22 93-41 164-41 63 0 78-13 78-70 0-68-15-80-100-80-60 0-71 3-84 22-9 12-16 35-16 50 0 26-3 28-36 28h-37l6-51c4-28 13-62 22-75 39-60 241-59 293 1 19 23 22 37 22 109 0 106-8 115-122 128-46 5-93 12-106 14-29 6-44 46-36 91 7 39 32 53 94 53 60 0 90-15 96-50 6-26 11-30 40-30 30 0 34 3 34 25 0 14-6 41-14 60-11 26-23 36-53 44-53 15-172 13-210-4z"/><path d="m5110 653c-82-26-95-60-95-243 0-159 7-186 58-224 24-18 43-21 115-21 159 0 177 25 177 250 0 171-11 206-70 231-33 13-152 18-185 7zm161-81c21-27 32-140 23-233s-24-109-101-109c-32 0-63 4-70 8-23 15-33 65-33 171 0 167 17 194 114 187 35-2 55-10 67-24z"/><path d="m5520 642c-61-30-75-74-75-237 0-152 8-182 57-218 18-13 48-21 95-24 126-9 182 30 191 132l4 55h-36c-34 0-36-2-36-31 0-32-15-69-34-81-6-4-37-8-68-8-92 0-102 23-96 213 4 141 10 152 94 152 47 0 59-4 75-24 10-13 19-36 19-52 0-26 3-29 35-29 33 0 35 2 35 35 0 58-25 104-64 120-49 21-152 19-196-3z"/><path d="m6119 644c-41-17-59-48-59-99 0-33 2-35 35-35 32 0 35 3 35 29 0 42 24 56 97 56 79 0 93-14 93-93 0-51-1-53-22-45-13 4-57 8-99 8-124 0-154-29-154-151 0-86 20-121 81-142 48-17 145-10 179 12 22 15 25 15 25 1 0-10 10-15 30-15h30v208c0 231-3 242-66 268-43 18-159 17-205-2zm189-271c39-42 22-114-31-133-115-40-213 49-147 133 34 43 139 43 178 0z"/><path d="m7043 646c-58-26-68-62-68-231 0-225 18-250 177-250 72 0 91 3 115 21 51 38 58 65 58 224 0 157-11 200-57 229-33 21-184 25-225 7zm160-55c35-14 47-59 47-182 0-106-10-156-33-171-7-4-38-8-69-8-78 0-93 16-102 109-8 78 1 195 16 224 17 33 89 47 141 28z"/><path d="m7513 640c-27-16-33-17-33-5 0 10-11 15-35 15h-35v-240-240h35 35v175c0 106 4 184 11 198 24 53 120 70 161 29 22-22 23-31 26-212l3-190h35 35l-3 208c-3 230-9 250-70 271-50 18-129 13-165-9z"/><path d="m8160 643c-59-30-70-67-70-231 0-220 19-247 176-247 153 0 173 28 173 245 0 211-21 243-162 248-64 2-90-1-117-15zm184-72c19-20 21-32 21-154 0-173-7-187-99-187s-100 12-104 154c-5 137 7 190 46 205 41 16 111 7 136-18z"/><path d="m9650 653c-8-3-25-15-37-26l-23-20v21c0 18-6 22-35 22h-35v-325-325h35 35v107 106l26-24c22-21 35-24 98-24 82 0 115 15 143 68 15 27 18 57 18 182 0 169-10 201-71 230-31 14-123 19-154 8zm119-80c27-22 41-77 41-163 0-77-13-137-33-157s-91-28-126-13c-42 17-56 59-56 170 0 104 14 151 48 168 35 17 102 14 126-5z"/><path d="m10030 643c-59-31-73-73-73-232 0-215 23-246 179-246 152 0 172 29 173 245 0 211-21 243-162 248-64 2-90-1-117-15zm181-72c35-43 38-266 4-317-14-21-23-24-79-24-92 0-100 11-105 158-4 137 7 186 47 201 42 16 113 7 133-18z"/><path d="m10510 653c-8-3-23-12-32-21-16-14-18-13-18 1 0 13-9 17-35 17h-35v-240-240h34 35l3 190c3 181 4 190 26 212 15 16 34 23 62 23 49 0 60-11 67-64 5-37 8-41 34-41 28 0 29 1 29 56 0 48-4 59-29 85-25 24-37 29-78 28-26 0-55-3-63-6z"/><path d="m11865 629-35-31v26c0 23-4 26-35 26h-35v-240-240h34 34l4 168c4 183 15 224 64 242 40 16 90 12 115-9 23-19 24-23 27-210l4-191h34 34v175c0 106 4 184 11 198 14 30 48 47 95 47 83 0 94-29 94-251v-169h35 35v190c0 202-6 236-49 274-23 21-111 33-155 22-13-3-38-17-54-31-26-22-31-23-43-9-23 28-67 44-123 44-48 0-60-4-91-31z"/><path d="m12600 653c-8-3-25-15-37-26l-23-20v21c0 18-6 22-35 22h-35v-325-325h35 35v107 106l26-24c22-21 35-24 98-24 82 0 115 15 143 68 15 26 18 57 18 177 0 166-12 207-70 234-32 15-123 20-155 9zm125-87c17-18 25-39 30-90 9-81-1-183-21-213-28-44-141-42-170 2-11 16-18 57-21 122-8 157 18 203 115 203 32 0 49-6 67-24z"/><path d="m13190 653c-82-26-95-60-95-243 0-159 7-186 58-224 24-18 43-21 115-21 159 0 177 25 177 250 0 171-11 206-70 231-33 13-152 18-185 7zm161-81c21-27 32-140 23-233s-24-109-101-109c-67 0-78 5-92 43-14 36-14 247-1 282 13 33 43 46 104 41 35-2 55-10 67-24z"/><path d="m13960 643c-60-31-75-76-74-233 1-211 24-245 174-245 132 0 170 26 170 115 0 39-1 40-35 40-32 0-35-2-35-29 0-47-22-61-95-61-57 0-66 3-84 26-15 20-21 41-21 80v54h135 135v86c0 144-27 175-155 181-63 3-87 0-115-14zm149-54c38-14 51-35 51-88v-41h-100-100v33c0 55 11 79 44 93 38 16 64 17 105 3z"/><path d="m14440 653c-8-3-23-12-32-21-16-14-18-13-18 1 0 13-9 17-35 17h-35v-240-240h35 35v180c0 191 6 220 47 239 55 25 100 1 109-60 6-35 9-39 36-39h30l-4 62c-6 79-35 108-106 107-26 0-54-3-62-6z"/><path d="m14723 645c-17-7-36-22-42-34-12-21-15-149-5-176 11-27 58-44 143-51 103-9 117-18 114-80-2-63-18-74-104-74-59 0-70 3-83 22-9 12-16 35-16 50 0 25-3 28-36 28h-37l7-52c4-29 14-63 22-75 38-59 240-57 292 2 19 23 22 37 22 110 0 109-12 120-138 130-115 10-122 14-122 74s14 73 83 78c65 5 101-12 105-50 3-24 8-27 38-27 31 0 34 2 34 30 0 46-25 86-61 99-44 15-177 13-216-4z"/><path d="m442 441c3-205 3-210 27-235 49-52 154-60 212-17 29 21 29 21 29 1 0-16 6-20 35-20h35v240 240h-34-35l-3-186-3-186-28-24c-38-32-115-34-143-3-17 19-19 41-22 210l-3 189h-35-35z"/><path d="m5880 410v-240h35 35v240 240h-35-35z"/><path d="m6800 410v-240h35 35v240 240h-35-35z"/><path d="m13496 628c4-13 35-120 70-238 34-118 67-216 73-218 34-11-13-96-58-105-26-6-31-11-31-37 0-29 2-30 44-30 56 0 90 27 110 88 16 48 136 537 136 553 0 5-15 9-34 9h-34l-48-197c-26-109-49-193-51-188-1 6-27 93-57 195l-53 185-38 3c-34 3-36 2-29-20z"/></g></svg>