<svg xmlns="http://www.w3.org/2000/svg" xmlns:xlink="http://www.w3.org/1999/xlink" width="800" height="400" viewBox="0 0 800 400">
  <defs>
    <clipPath id="clip-ilo_logo">
      <rect width="800" height="400"/>
    </clipPath>
  </defs>
  <g id="ilo_logo" clip-path="url(#clip-ilo_logo)">
    <rect width="800" height="400" fill="#fff"/>
    <g id="ilo-logo" transform="translate(103.372 93.094)">
      <path id="Pfad_116" data-name="Pfad 116" d="M104.19,47.9V9.22h6.627V47.9Z" transform="translate(192.513 15.232)" fill="#1e2dbe"/>
      <path id="Pfad_117" data-name="Pfad 117" d="M126.175,41.552v-16.2c0-4.371-1.742-6.57-5.256-6.57s-5.713,2.142-5.713,6.456V41.552H108.75V13.3h6.427v2.657a9.284,9.284,0,0,1,7.456-3.314A9.8,9.8,0,0,1,129.86,15.5a11.94,11.94,0,0,1,2.857,8.8V41.638Z" transform="translate(200.979 21.577)" fill="#1e2dbe"/>
      <path id="Pfad_118" data-name="Pfad 118" d="M129,49.382c-4.371,0-6.57-2.4-6.57-7.227V26.1h-4.2V20.388h4.2v-8.57L129,8.79V20.445h6.542v5.713H129V40.812c0,1.8.8,2.714,2.371,2.714a9.169,9.169,0,0,0,4.428-1.257l-.771,5.713a12.911,12.911,0,0,1-6.027,1.4Z" transform="translate(218.579 14.434)" fill="#1e2dbe"/>
      <path id="Pfad_119" data-name="Pfad 119" d="M138.314,42.292a12.112,12.112,0,0,1-9.541-3.942A15.74,15.74,0,0,1,125.259,27.5,15.654,15.654,0,0,1,128.8,16.583a13.34,13.34,0,0,1,18.368-.6,13.169,13.169,0,0,1,3.456,9.884,33.013,33.013,0,0,1-.2,4H131.686a6.97,6.97,0,0,0,2.057,4.8,6.37,6.37,0,0,0,4.571,1.828,7.056,7.056,0,0,0,5.97-2.857l4.085,4.2a12.369,12.369,0,0,1-10.055,4.456Zm-6.57-17.682h12.483a6.656,6.656,0,0,0-1.885-4.6,5.713,5.713,0,0,0-4.028-1.6,6.77,6.77,0,0,0-4.57,1.543,6.341,6.341,0,0,0-2,4.628Z" transform="translate(231.574 21.523)" fill="#1e2dbe"/>
      <path id="Pfad_120" data-name="Pfad 120" d="M135.68,41.607V13.356h6.627v2.857a5.942,5.942,0,0,1,5.713-3.6,7.884,7.884,0,0,1,5.256,1.942l-.943,5.913a8.027,8.027,0,0,0-4.8-1.485,5.142,5.142,0,0,0-3.771,1.543,7.2,7.2,0,0,0-1.543,5.2v15.8Z" transform="translate(250.976 21.522)" fill="#1e2dbe"/>
      <path id="Pfad_121" data-name="Pfad 121" d="M160.356,41.552v-16.2c0-4.371-1.742-6.57-5.227-6.57s-5.713,2.142-5.713,6.456V41.552H142.96V13.3h6.456v2.657a9.284,9.284,0,0,1,7.456-3.314A9.741,9.741,0,0,1,164.1,15.5a11.94,11.94,0,0,1,2.857,8.8V41.638Z" transform="translate(264.491 21.577)" fill="#1e2dbe"/>
      <path id="Pfad_122" data-name="Pfad 122" d="M170.54,41.48V39.309a9.912,9.912,0,0,1-7.513,2.857,10.741,10.741,0,0,1-7.37-2.457,8.57,8.57,0,0,1-2.857-6.941,8.027,8.027,0,0,1,3.256-6.941,12.655,12.655,0,0,1,7.8-2.4,13.454,13.454,0,0,1,6.684,1.6V23.512A4.971,4.971,0,0,0,169.2,19.6a6.17,6.17,0,0,0-4.171-1.228,14.283,14.283,0,0,0-8.4,2.657l-2-5.227a19.139,19.139,0,0,1,11.055-3.114,17.4,17.4,0,0,1,3.885.371,11.712,11.712,0,0,1,3.485,1.4,6.913,6.913,0,0,1,2.857,3.314,14.282,14.282,0,0,1,1,5.713v18.2ZM164.2,36.452a8.4,8.4,0,0,0,6.284-2.714V30.082a12.854,12.854,0,0,0-5.713-1.143,8.17,8.17,0,0,0-4.2.943,3.114,3.114,0,0,0-1.6,2.857,3.2,3.2,0,0,0,1.314,2.714A6.37,6.37,0,0,0,164.2,36.452Z" transform="translate(282.73 21.65)" fill="#1e2dbe"/>
      <path id="Pfad_123" data-name="Pfad 123" d="M173.049,49.382c-4.371,0-6.57-2.4-6.57-7.227V26.1h-4.2V20.388h4.2v-8.57l6.427-3.028V20.445h6.513v5.713h-6.513V40.812c0,1.8.771,2.714,2.371,2.714a9.255,9.255,0,0,0,4.428-1.257l-.8,5.713A12.741,12.741,0,0,1,173.049,49.382Z" transform="translate(300.36 14.434)" fill="#1e2dbe"/>
      <path id="Pfad_124" data-name="Pfad 124" d="M176.213,15.374a3.628,3.628,0,0,1-2.714,1.143,3.685,3.685,0,0,1-2.857-1.143A3.742,3.742,0,0,1,169.5,12.66a3.685,3.685,0,0,1,1.143-2.714A3.771,3.771,0,0,1,173.5,8.833a3.756,3.756,0,0,1,3.8,3.828,3.8,3.8,0,0,1-1.085,2.714Zm-5.97,33.25V20.373h6.4V48.624Z" transform="translate(313.764 14.505)" fill="#1e2dbe"/>
      <path id="Pfad_125" data-name="Pfad 125" d="M186.607,42.214a12.055,12.055,0,0,1-9.455-3.913,15.8,15.8,0,0,1-3.485-10.826,15.825,15.825,0,0,1,3.485-10.855,13.283,13.283,0,0,1,18.939,0A15.711,15.711,0,0,1,199.6,27.474,15.8,15.8,0,0,1,196.12,38.3a12.169,12.169,0,0,1-9.512,3.913Zm0-6.17a5.713,5.713,0,0,0,4.77-2.285,10.027,10.027,0,0,0,1.743-6.284,10.341,10.341,0,0,0-1.743-6.37,6,6,0,0,0-9.484,0,10.369,10.369,0,0,0-1.743,6.342,10.169,10.169,0,0,0,1.714,6.256,5.713,5.713,0,0,0,4.742,2.314Z" transform="translate(321.452 21.602)" fill="#1e2dbe"/>
      <path id="Pfad_126" data-name="Pfad 126" d="M201.834,41.553v-16.2c0-4.371-1.771-6.57-5.256-6.57s-5.713,2.142-5.713,6.456V41.553H184.38V13.3h6.484v2.657a9.2,9.2,0,0,1,7.456-3.314,9.741,9.741,0,0,1,7.2,2.857,11.94,11.94,0,0,1,2.857,8.8V41.639Z" transform="translate(341.39 21.576)" fill="#1e2dbe"/>
      <path id="Pfad_127" data-name="Pfad 127" d="M211.979,41.535V39.364a10,10,0,0,1-7.513,2.857,10.855,10.855,0,0,1-7.4-2.457,8.57,8.57,0,0,1-2.857-6.941,8,8,0,0,1,3.228-6.941,12.74,12.74,0,0,1,7.827-2.4A13.454,13.454,0,0,1,211.95,25V23.482a4.971,4.971,0,0,0-1.371-3.913,6.113,6.113,0,0,0-4.171-1.228A14.283,14.283,0,0,0,198.01,21l-1.971-5.227a19.11,19.11,0,0,1,11.026-3.114,17.853,17.853,0,0,1,3.913.371,12.026,12.026,0,0,1,3.485,1.4,6.856,6.856,0,0,1,2.857,3.314,13.683,13.683,0,0,1,1,5.713v18.2Zm-6.313-5.028a8.57,8.57,0,0,0,6.313-2.714V30.137a13.083,13.083,0,0,0-5.713-1.143,8.313,8.313,0,0,0-4.2.943,3.114,3.114,0,0,0-1.6,2.857,3.228,3.228,0,0,0,1.343,2.714,6.256,6.256,0,0,0,3.856,1Z" transform="translate(359.61 21.595)" fill="#1e2dbe"/>
      <path id="Pfad_128" data-name="Pfad 128" d="M204.67,48.7V11.847l6.456-3.057V48.782Z" transform="translate(379.059 14.434)" fill="#1e2dbe"/>
      <path id="Pfad_129" data-name="Pfad 129" d="M104.09,67.266V28.56h6.627V60.9h18.825v6.37Z" transform="translate(192.327 51.138)" fill="#1e2dbe"/>
      <path id="Pfad_130" data-name="Pfad 130" d="M131.7,61.012V58.727a9.884,9.884,0,0,1-7.513,2.857,10.883,10.883,0,0,1-7.37-2.457,8.57,8.57,0,0,1-2.857-6.941,8.17,8.17,0,0,1,3.228-6.97,12.969,12.969,0,0,1,7.827-2.371A13.454,13.454,0,0,1,131.7,44.33V42.844a5.056,5.056,0,0,0-1.343-3.913,6.056,6.056,0,0,0-4.171-1.228,14.283,14.283,0,0,0-8.4,2.657l-2-5.256a21.538,21.538,0,0,1,14.94-2.857,11.826,11.826,0,0,1,3.485,1.428,6.77,6.77,0,0,1,2.857,3.314,14.082,14.082,0,0,1,1,5.713V60.9Zm-6.17-5.028a8.4,8.4,0,0,0,6.284-2.857V49.614a12.94,12.94,0,0,0-5.713-1.171,8.17,8.17,0,0,0-4.2.943,3.085,3.085,0,0,0-1.6,2.857,3.2,3.2,0,0,0,1.314,2.857,6.37,6.37,0,0,0,3.913.886Z" transform="translate(210.622 57.392)" fill="#1e2dbe"/>
      <path id="Pfad_131" data-name="Pfad 131" d="M137.082,68.666a7.57,7.57,0,0,1-6.256-2.857V67.98H124.37V31.017l6.456-2.857V41.986a7.97,7.97,0,0,1,6.37-2.857,10.426,10.426,0,0,1,8.57,3.971,16.682,16.682,0,0,1,3.257,10.741,16.825,16.825,0,0,1-3.285,11A10.483,10.483,0,0,1,137.082,68.666Zm-.771-6.2a5.228,5.228,0,0,0,4.542-2.285,11.026,11.026,0,0,0,1.571-6.342,10.683,10.683,0,0,0-1.6-6.4,5.2,5.2,0,0,0-4.513-2.2,6.142,6.142,0,0,0-5.485,2.857V59.868a6.027,6.027,0,0,0,5.485,2.6Z" transform="translate(229.978 50.395)" fill="#1e2dbe"/>
      <path id="Pfad_132" data-name="Pfad 132" d="M147.091,61.564a11.912,11.912,0,0,1-9.427-3.942A15.568,15.568,0,0,1,134.18,46.8a15.74,15.74,0,0,1,3.485-10.855,13.31,13.31,0,0,1,18.91,0A15.739,15.739,0,0,1,160.089,46.8a15.711,15.711,0,0,1-3.514,10.941,12.026,12.026,0,0,1-9.484,3.828Zm0-6.2a5.713,5.713,0,0,0,4.8-2.257,10.284,10.284,0,0,0,1.742-6.313,10.455,10.455,0,0,0-1.743-6.342,5.713,5.713,0,0,0-4.8-2.314,5.542,5.542,0,0,0-4.8,2.457,10.284,10.284,0,0,0-1.771,6.313,10.141,10.141,0,0,0,1.743,6.284A5.713,5.713,0,0,0,147.091,55.365Z" transform="translate(248.134 57.497)" fill="#1e2dbe"/>
      <path id="Pfad_133" data-name="Pfad 133" d="M162.289,60.471V57.615a8.855,8.855,0,0,1-7.4,3.371,9.884,9.884,0,0,1-7.256-2.857,11.912,11.912,0,0,1-2.857-8.8V32.22h6.427V48.36c0,4.371,1.771,6.57,5.313,6.57s5.713-2.142,5.713-6.456V32.22h6.456V60.471Z" transform="translate(267.787 57.933)" fill="#1e2dbe"/>
      <path id="Pfad_134" data-name="Pfad 134" d="M155.25,60.957V32.706h6.456v2.857a5.942,5.942,0,0,1,5.713-3.6,7.741,7.741,0,0,1,5.256,1.942l-.943,5.913a8.055,8.055,0,0,0-4.8-1.514,5.142,5.142,0,0,0-3.771,1.543,7.256,7.256,0,0,0-1.543,5.2V60.872Z" transform="translate(287.308 57.447)" fill="#1e2dbe"/>
      <path id="Pfad_135" data-name="Pfad 135" d="M120.542,87.6a17.739,17.739,0,0,1-6.513-1.143,13.826,13.826,0,0,1-4.828-3.114,17.482,17.482,0,0,1-3.2-4.57,20.852,20.852,0,0,1-1.857-5.4,30.937,30.937,0,0,1,0-11.426A20.851,20.851,0,0,1,106,56.55a17.823,17.823,0,0,1,3.2-4.542,13.883,13.883,0,0,1,4.828-3.142,17.739,17.739,0,0,1,6.513-1.143,16.882,16.882,0,0,1,7.884,1.742,13.454,13.454,0,0,1,5.313,4.685,23.453,23.453,0,0,1,2.857,6.4,28.565,28.565,0,0,1,0,14.283,23.279,23.279,0,0,1-2.857,6.37,13.769,13.769,0,0,1-5.313,4.713,17.139,17.139,0,0,1-7.884,1.685Zm0-6.342A8.941,8.941,0,0,0,125.256,80a8.769,8.769,0,0,0,3.171-3.371,17.138,17.138,0,0,0,1.685-4.342,19.825,19.825,0,0,0,.543-4.685,20.34,20.34,0,0,0-.543-4.828,16.71,16.71,0,0,0-1.685-4.342,8.4,8.4,0,0,0-3.142-3.256,8.827,8.827,0,0,0-4.742-1.228,8.255,8.255,0,0,0-5.913,2.257,12.055,12.055,0,0,0-3.285,5.17,21.053,21.053,0,0,0-.914,6.227,20.427,20.427,0,0,0,.572,4.8,16.14,16.14,0,0,0,1.685,4.369,8.4,8.4,0,0,0,3.142,3.256,8.8,8.8,0,0,0,4.713,1.228Z" transform="translate(191.443 86.706)" fill="#1e2dbe"/>
      <path id="Pfad_136" data-name="Pfad 136" d="M117.43,80.279V52.056h6.456v2.857a5.942,5.942,0,0,1,5.713-3.6,7.884,7.884,0,0,1,5.256,1.942l-.943,5.913a8.027,8.027,0,0,0-4.8-1.485,5.142,5.142,0,0,0-3.771,1.543,7.2,7.2,0,0,0-1.543,5.2v15.8Z" transform="translate(217.093 93.371)" fill="#1e2dbe"/>
      <path id="Pfad_137" data-name="Pfad 137" d="M135.454,91.3l-3.428-5.2a18.539,18.539,0,0,0,8.056-1.8,4.713,4.713,0,0,0,2.228-4.313V78.359a8.17,8.17,0,0,1-6.4,2.542,10.426,10.426,0,0,1-8.57-3.828A16.54,16.54,0,0,1,124.114,66.1a16.454,16.454,0,0,1,3.228-10.8,10.426,10.426,0,0,1,8.57-3.971,8.57,8.57,0,0,1,6.342,2.4V52.021h6.484V77.445a14.483,14.483,0,0,1-2.971,10.084A15.625,15.625,0,0,1,135.454,91.3ZM137,74.731a5.913,5.913,0,0,0,5.313-2.857V60.162A6.113,6.113,0,0,0,137,57.306a5.456,5.456,0,0,0-4.656,2.228,13.111,13.111,0,0,0,0,12.712A5.4,5.4,0,0,0,137,74.731Z" transform="translate(229.434 93.406)" fill="#1e2dbe"/>
      <path id="Pfad_138" data-name="Pfad 138" d="M152.009,80.221V77.964a9.969,9.969,0,0,1-7.513,2.857,10.741,10.741,0,0,1-7.37-2.457,8.57,8.57,0,0,1-2.857-6.913,8.113,8.113,0,0,1,3.228-6.8,12.8,12.8,0,0,1,7.827-2.371,13.454,13.454,0,0,1,6.684,1.485V62.282a5.142,5.142,0,0,0-1.343-3.942,6.2,6.2,0,0,0-4.171-1.2,14.283,14.283,0,0,0-8.4,2.657l-2-5.256a21.024,21.024,0,0,1,14.94-2.857,11.712,11.712,0,0,1,3.485,1.4,7.027,7.027,0,0,1,2.857,3.314,14.282,14.282,0,0,1,1,5.713V80.278Zm-6.284-5.028a8.341,8.341,0,0,0,6.284-2.714V68.852A12.94,12.94,0,0,0,146.3,67.68a8.169,8.169,0,0,0-4.2.943,3.057,3.057,0,0,0-1.6,2.857,3.142,3.142,0,0,0,1.314,2.685A6.17,6.17,0,0,0,145.725,75.193Z" transform="translate(248.329 93.429)" fill="#1e2dbe"/>
      <path id="Pfad_139" data-name="Pfad 139" d="M162.115,80.243v-16.2c0-4.371-1.743-6.57-5.256-6.57s-5.713,2.171-5.713,6.484V80.243H144.69V52.02h6.456v2.657a9.2,9.2,0,0,1,7.456-3.342,9.912,9.912,0,0,1,7.227,2.857,12,12,0,0,1,2.857,8.8V80.329Z" transform="translate(267.703 93.407)" fill="#1e2dbe"/>
      <path id="Pfad_140" data-name="Pfad 140" d="M161.518,54.183a3.657,3.657,0,0,1-2.857,1.114,3.856,3.856,0,0,1-3.856-3.856,3.571,3.571,0,0,1,1.143-2.857,3.713,3.713,0,0,1,2.714-1.114,4.072,4.072,0,0,1,2.857,6.713ZM155.548,87.4V59.182h6.484V87.4Z" transform="translate(286.468 86.245)" fill="#1e2dbe"/>
      <path id="Pfad_141" data-name="Pfad 141" d="M158.79,79.774v-5.2l14.883-17.282H159.99V51.58H181.7v4.97L166.931,74.061h14.711v5.713Z" transform="translate(293.88 93.876)" fill="#1e2dbe"/>
      <path id="Pfad_142" data-name="Pfad 142" d="M185.719,80.221V77.964a10,10,0,0,1-7.513,2.857,10.741,10.741,0,0,1-7.37-2.457,8.57,8.57,0,0,1-2.857-6.913,8.113,8.113,0,0,1,3.228-6.8,12.8,12.8,0,0,1,7.827-2.371,13.454,13.454,0,0,1,6.684,1.485V62.282a5.142,5.142,0,0,0-1.343-3.942,6.2,6.2,0,0,0-4.171-1.2,14.283,14.283,0,0,0-8.427,2.657l-1.971-5.256a21.024,21.024,0,0,1,14.94-2.857,12.026,12.026,0,0,1,3.485,1.4A7.027,7.027,0,0,1,191.09,56.4a14.282,14.282,0,0,1,1,5.713V80.278Zm-6.227-5.028a8.341,8.341,0,0,0,6.313-2.714V68.852a13.026,13.026,0,0,0-5.713-1.171,8.17,8.17,0,0,0-4.2.943,3.057,3.057,0,0,0-1.6,2.857,3.142,3.142,0,0,0,1.314,2.685,6.084,6.084,0,0,0,3.885,1.028Z" transform="translate(310.914 93.429)" fill="#1e2dbe"/>
      <path id="Pfad_143" data-name="Pfad 143" d="M188.249,88.1c-4.371,0-6.57-2.4-6.57-7.227V64.846h-4.2V59.133h4.342v-8.57l6.456-3.114V59.133h6.541v5.713h-6.541V79.615c0,1.8.8,2.685,2.371,2.685a8.855,8.855,0,0,0,4.428-1.257l-.771,5.713a12.569,12.569,0,0,1-6.056,1.343Z" transform="translate(328.579 86.208)" fill="#1e2dbe"/>
      <path id="Pfad_144" data-name="Pfad 144" d="M191.275,54.186A3.6,3.6,0,0,1,188.59,55.3a3.856,3.856,0,0,1-3.885-3.856,3.571,3.571,0,0,1,1.143-2.857,3.713,3.713,0,0,1,2.857-1.114,3.6,3.6,0,0,1,2.685,1.114,3.656,3.656,0,0,1,1.114,2.857,3.828,3.828,0,0,1-1.228,2.742Zm-5.713,33.222V59.185h6.484V87.408Z" transform="translate(341.979 86.242)" fill="#1e2dbe"/>
      <path id="Pfad_145" data-name="Pfad 145" d="M201.809,80.892a11.912,11.912,0,0,1-9.455-3.913,15.625,15.625,0,0,1-3.485-10.826A15.74,15.74,0,0,1,192.354,55.3a13.254,13.254,0,0,1,18.91,0,15.74,15.74,0,0,1,3.513,10.855,15.625,15.625,0,0,1-3.485,10.826,11.969,11.969,0,0,1-9.484,3.913Zm0-6.17a5.713,5.713,0,0,0,4.77-2.285,9.969,9.969,0,0,0,1.742-6.284,10.4,10.4,0,0,0-1.742-6.37,6,6,0,0,0-9.484,0,10.369,10.369,0,0,0-1.771,6.342,10.141,10.141,0,0,0,1.742,6.284A5.713,5.713,0,0,0,201.809,74.722Z" transform="translate(349.669 93.415)" fill="#1e2dbe"/>
      <path id="Pfad_146" data-name="Pfad 146" d="M216.986,80.243v-16.2c0-4.371-1.742-6.57-5.227-6.57s-5.713,2.171-5.713,6.484V80.243H199.59V52.02h6.456v2.657a9.2,9.2,0,0,1,7.456-3.342,9.855,9.855,0,0,1,7.227,2.857,12,12,0,0,1,2.857,8.8V80.329Z" transform="translate(369.628 93.407)" fill="#1e2dbe"/>
      <path id="Pfad_147" data-name="Pfad 147" d="M34.339,52.04c-1.057,1.828-1.457,2.628-1.457,2.628a3.714,3.714,0,0,1-4.6,1.771l-2.857-1.171a3.256,3.256,0,0,0-4.2,1.885l-2.314,6.084a3.256,3.256,0,0,0,1.885,4.2l3.057,1.171a3.828,3.828,0,0,1,2.257,4.342L24.77,79.577a3.742,3.742,0,0,1-3.742,3.114H17.743a3.285,3.285,0,0,0-3.371,3.142L14,92.26A3.256,3.256,0,0,0,17.143,95.6h3.285A3.828,3.828,0,0,1,24,98.973l.886,6.713a3.771,3.771,0,0,1-2.542,4.142l-3.171.971a3.256,3.256,0,0,0-2.142,4.085l2.857,9.341,17.6-5.427a71.1,71.1,0,0,1,56.331-97.38L89.728,3.45,80.216,5.678a3.228,3.228,0,0,0-2.457,3.885l.743,3.256A3.8,3.8,0,0,1,76.159,17.1L69.9,19.675a3.828,3.828,0,0,1-4.685-1.4l-1.743-2.857a3.256,3.256,0,0,0-4.485-1.057l-5.513,3.514a3.256,3.256,0,0,0-1.057,4.485l1.714,2.857a3.771,3.771,0,0,1-.8,4.828l-5.056,4.4a3.8,3.8,0,0,1-4.885.171l-2.542-2.057a3.228,3.228,0,0,0-4.57.486l-4.113,5.028a3.256,3.256,0,0,0,.457,4.6l2.542,2.057a3.685,3.685,0,0,1,.714,4.77S35.4,50.212,34.339,52.04Z" transform="translate(25.07 4.52)" fill="#1e2dbe"/>
      <path id="Pfad_148" data-name="Pfad 148" d="M90.207,85.107h3a3.714,3.714,0,0,1,3.8,3.028l.514,3.228a3.256,3.256,0,0,0,3.742,2.685l6.456-1.085A3.256,3.256,0,0,0,110.4,89.22l-.543-3.085a3.771,3.771,0,0,1,2.6-4.113l6.427-2.171a3.8,3.8,0,0,1,4.6,1.685L125,84.393a3.256,3.256,0,0,0,4.428,1.343l5.713-3.057a3.256,3.256,0,0,0,1.343-4.4l-1.543-2.857a3.828,3.828,0,0,1,1.114-4.77l5.37-4.113a3.771,3.771,0,0,1,4.885,0l2.428,2.257a3.256,3.256,0,0,0,4.685-.229l6.684-7.141L146.538,49A71.157,71.157,0,0,1,33.933,49L20.45,61.512l6.656,7.141a3.314,3.314,0,0,0,4.628.171l2.4-2.257a3.8,3.8,0,0,1,4.885,0l5.37,4.142A3.8,3.8,0,0,1,45.5,75.48l-1.543,2.857A3.314,3.314,0,0,0,45.3,82.764l5.713,3.057a3.228,3.228,0,0,0,4.4-1.343l1.543-2.857a3.8,3.8,0,0,1,4.6-1.685l6.427,2.171a3.771,3.771,0,0,1,2.6,4.028l-.514,3.228a3.257,3.257,0,0,0,2.685,3.742l6.427,1.028a3.256,3.256,0,0,0,3.742-2.685l.514-3.228a3.713,3.713,0,0,1,3.8-3.028S88.093,85.107,90.207,85.107Z" transform="translate(37.045 89.086)" fill="#1e2dbe"/>
      <path id="Pfad_149" data-name="Pfad 149" d="M107.3,52.079c-1.028-1.828-1.543-2.571-1.543-2.571a3.714,3.714,0,0,1,.743-4.8l2.542-2.057a3.256,3.256,0,0,0,.457-4.57l-4.056-5.056a3.285,3.285,0,0,0-4.6-.486l-2.514,2.085a3.828,3.828,0,0,1-4.885-.2L88.307,29.94A3.8,3.8,0,0,1,87.479,25l1.742-2.857a3.285,3.285,0,0,0-.914-4.285L82.594,14.4a3.314,3.314,0,0,0-4.513,1.057l-1.714,2.857a3.828,3.828,0,0,1-4.685,1.4l-6.227-2.628A3.8,3.8,0,0,1,63.141,12.8l.743-3.228A3.285,3.285,0,0,0,61.427,5.66l-9.512-2.2L47.83,21.4A71.128,71.128,0,0,1,104.1,118.893l17.6,5.456,2.857-9.369a3.256,3.256,0,0,0-2.171-4.056l-3.171-.971a3.8,3.8,0,0,1-2.542-4.171l.885-6.713a3.828,3.828,0,0,1,3.571-3.342h3.285a3.228,3.228,0,0,0,3.142-3.371l-.2-6.513a3.257,3.257,0,0,0-3.371-3.142h-3.256a3.8,3.8,0,0,1-3.856-3.114l-1.343-6.656a3.828,3.828,0,0,1,2.285-4.342l3.057-1.143a3.285,3.285,0,0,0,1.885-4.2l-2.314-6.084a3.314,3.314,0,0,0-4.228-1.914l-2.971,1.171a3.685,3.685,0,0,1-4.485-1.743S108.3,53.907,107.3,52.079Z" transform="translate(87.878 4.538)" fill="#1e2dbe"/>
      <path id="Pfad_150" data-name="Pfad 150" d="M9.22,19.94Z" transform="translate(16.196 35.134)" fill="#1e2dbe"/>
      <path id="Pfad_151" data-name="Pfad 151" d="M19,18.771l.257.286a22.681,22.681,0,0,1,6.713-3.142C43.681,10.8,42.8,4.688,50.422,1.031L50.079.66a11.912,11.912,0,0,1-6.256,1.857C23.028,2.774,24.713,14.914,19,18.771Z" transform="translate(34.353 -0.66)" fill="#1e2dbe"/>
      <path id="Pfad_152" data-name="Pfad 152" d="M11.8,39.087l.371.257a17.939,17.939,0,0,1,8.97-5.713c16.511-4.885,22.253-15.8,26.709-18.91l-.143-.257c-6.113,4.342-13.369,0-25.709,13.14l-.428-.371C31.6,15.12,31.853,6.893,36.481,2.409l-.229-.229C7,19.548,19.827,29.089,11.8,39.087Z" transform="translate(20.986 2.162)" fill="#1e2dbe"/>
      <path id="Pfad_153" data-name="Pfad 153" d="M22.676,8C-4.862,35.366,12.278,42.279,7.964,55.933H8.25a17.739,17.739,0,0,1,9.027-8.37c11.655-5.37,15.34-18.967,20-23.109l-.229-.2c-5.713,6.17-15.111,2.714-22.852,18.025l-.514-.257c6.17-13.34,3.285-25.423,9.17-33.736A1.8,1.8,0,0,0,22.676,8Z" transform="translate(11.31 12.967)" fill="#1e2dbe"/>
      <path id="Pfad_154" data-name="Pfad 154" d="M10.913,73.848h.4a17.139,17.139,0,0,1,5.97-14.083C30.366,47.654,28.138,36.913,33.508,28.572l-.371-.2c-4.171,7.113-19.4,14.883-20,25.709a3.942,3.942,0,0,1-.571,0C14.8,38.427,6.543,28,11.027,18.089l-.4-.229C-6.855,53.8,7.6,53.31,10.913,73.848Z" transform="translate(3.077 31.273)" fill="#1e2dbe"/>
      <path id="Pfad_155" data-name="Pfad 155" d="M21.023,84.62l.428-.143c-3.6-8.113,2.428-19.225,2.857-19.739,7.941-15.425,5.285-29.365,7.113-34.279h-.371C26.793,41.029,15.024,46.771,16.767,64.567H16.2C14.281,53.484,1.77,42.886,2.255,30.86H1.97C-5.829,73.594,16.367,73.308,21.023,84.62Z" transform="translate(-0.32 54.665)" fill="#1e2dbe"/>
      <path id="Pfad_156" data-name="Pfad 156" d="M36.97,96.007l.314-.257a23.738,23.738,0,0,1-5.056-19.539c3.714-21.31-3.256-25.166-3.256-34.821h-.343c-.314,10.8-11.426,22.852-1.343,38.049l-.486.314C15.746,63.614,6.976,67.556,1.806,51.5h0a1.2,1.2,0,0,0-.486,0C8.976,98.664,29.914,84.438,36.97,96.007Z" transform="translate(1.529 74.957)" fill="#1e2dbe"/>
      <path id="Pfad_157" data-name="Pfad 157" d="M70.163,98.449v-.457c-14.568,2.857-22,0-24.652-13.254-3.656-18.825-16.6-26.08-17.939-33.593h0a.771.771,0,0,0-.371,0h0c2.857,13.283-3.714,21.2,12.312,37.135l-.428.371c-15.425-12.2-26.023-7.713-32.136-16.2a1.057,1.057,0,0,0-.257.257C25.629,104.448,46.11,106.162,70.163,98.449Z" transform="translate(11.499 93.025)" fill="#1e2dbe"/>
      <path id="Pfad_158" data-name="Pfad 158" d="M16.31,73.023v-.171c19.6,11.426,39.992-4.513,64.9-5.085,6.227-.143,24.852,1,41.934,20.853L118.6,89.9c-5.713-9.8-14.283-16.882-22.253-18.853C73.784,65.338,73.5,86.448,48.275,86.763,29.707,87.02,17.053,73.765,16.31,73.023Z" transform="translate(29.359 123.908)" fill="#1e2dbe"/>
      <path id="Pfad_159" data-name="Pfad 159" d="M80.45,19.94Z" transform="translate(148.438 35.134)" fill="#1e2dbe"/>
      <path id="Pfad_160" data-name="Pfad 160" d="M80.45,19.94Z" transform="translate(148.438 35.134)" fill="#1e2dbe"/>
      <path id="Pfad_161" data-name="Pfad 161" d="M9.22,19.94Z" transform="translate(16.196 35.134)" fill="#1e2dbe"/>
      <path id="Pfad_162" data-name="Pfad 162" d="M80.45,19.94Z" transform="translate(148.438 35.134)" fill="#1e2dbe"/>
      <path id="Pfad_163" data-name="Pfad 163" d="M90.932,18.771l-.257.286a22.681,22.681,0,0,0-6.627-3.142C66.252,10.8,67.223,4.688,59.71,1.031L59.939.66a11.912,11.912,0,0,0,6.313,1.857C86.99,2.774,85.419,14.914,90.932,18.771Z" transform="translate(109.933 -0.66)" fill="#1e2dbe"/>
      <path id="Pfad_164" data-name="Pfad 164" d="M101.3,39.087l-.371.257a17.939,17.939,0,0,0-8.97-5.713c-16.511-4.885-22.253-15.8-26.709-18.91v-.257c6.113,4.342,13.369,0,25.709,13.14l.428-.371C81.361,15.12,81.1,6.893,76.476,2.409L76.7,2.18C106.1,19.548,93.273,29.089,101.3,39.087Z" transform="translate(120.219 2.162)" fill="#1e2dbe"/>
      <path id="Pfad_165" data-name="Pfad 165" d="M86.937,8c27.537,27.309,10.4,34.279,14.711,47.876h-.286a17.739,17.739,0,0,0-9.027-8.37C80.681,42.136,77,28.539,72.34,24.4l.229-.2c5.713,6.17,15.111,2.714,22.852,18.025l.514-.257c-6.17-13.34-3.285-25.423-9.17-33.736A1.8,1.8,0,0,1,86.937,8Z" transform="translate(133.382 12.967)" fill="#1e2dbe"/>
      <path id="Pfad_166" data-name="Pfad 166" d="M99.135,73.867h-.4a17.139,17.139,0,0,0-5.97-14.083C79.682,47.672,81.91,36.932,76.54,28.591l.4-.229c4.171,7.113,19.4,14.883,20,25.709a3.942,3.942,0,0,0,.571,0c-2.228-15.654,6.027-26.08,1.543-35.993l.4-.229C116.96,53.814,102.449,53.328,99.135,73.867Z" transform="translate(141.179 31.254)" fill="#1e2dbe"/>
      <path id="Pfad_167" data-name="Pfad 167" d="M88.765,84.62l-.286-.143c3.6-8.113-2.428-19.225-2.857-19.739C77.682,49.313,80.338,35.373,78.51,30.46h.371c4.256,10.569,16.025,16.311,14.283,34.107h.571c1.857-11.026,14.283-21.624,13.969-33.65h.2C115.617,73.594,93.421,73.308,88.765,84.62Z" transform="translate(144.837 54.665)" fill="#1e2dbe"/>
      <path id="Pfad_168" data-name="Pfad 168" d="M76.074,96.007l-.314-.257a23.738,23.738,0,0,0,5.056-19.539C77.1,54.9,84.015,51.045,84.187,41.39h.343c.314,10.8,11.426,22.852,1.343,38.049l.486.314c11.055-16.14,19.824-12.2,24.995-28.251h0a1.229,1.229,0,0,1,.457,0C104.04,98.664,83.13,84.438,76.074,96.007Z" transform="translate(139.731 74.957)" fill="#1e2dbe"/>
      <path id="Pfad_169" data-name="Pfad 169" d="M60.76,98.449v-.457c14.568,2.857,22,0,24.652-13.254,3.714-18.825,16.511-26.08,18-33.593h0a.771.771,0,0,1,.371,0h0c-2.857,13.283,3.714,21.2-12.312,37.135l.428.371c15.54-12.169,26.137-7.713,32.393-16.2l.257.257C105.294,104.448,84.841,106.162,60.76,98.449Z" transform="translate(111.883 93.025)" fill="#1e2dbe"/>
      <path id="Pfad_170" data-name="Pfad 170" d="M142.8,73.023v-.171c-19.6,11.426-39.992-4.513-64.9-5.085-6.227-.143-24.852,1-41.934,20.853L40.5,89.9c5.713-9.8,14.283-16.882,22.253-18.853,22.567-5.713,23,15.4,48.076,15.711C129.341,87.02,142.052,73.765,142.8,73.023Z" transform="translate(65.84 123.908)" fill="#1e2dbe"/>
      <path id="Pfad_171" data-name="Pfad 171" d="M9.22,19.94Z" transform="translate(16.196 35.134)" fill="#1e2dbe"/>
      <path id="Pfad_172" data-name="Pfad 172" d="M9.22,19.94Z" transform="translate(16.196 35.134)" fill="#1e2dbe"/>
      <path id="Pfad_173" data-name="Pfad 173" d="M80.45,19.94Z" transform="translate(148.438 35.134)" fill="#1e2dbe"/>
      <path id="Pfad_174" data-name="Pfad 174" d="M72.132,20.15h-.343A25.052,25.052,0,0,0,49.451,35.89a45.162,45.162,0,0,0-2.857,17.739,45.162,45.162,0,0,0,2.857,17.739c4.371,9.827,13.2,16.539,22.338,16.539h.343c9.17,0,17.968-6.713,22.338-16.539a45.7,45.7,0,0,0,2.857-17.739A45.705,45.705,0,0,0,94.47,35.89,25.023,25.023,0,0,0,72.132,20.15ZM86.243,54c0,5.884-.171,10.941-.171,10.941-.371,4.8-.428,9.627-2.657,12.912a12.8,12.8,0,0,1-10.626,5.713H72.1a12.8,12.8,0,0,1-10.626-5.713c-2.228-3.285-2.314-8.113-2.685-12.912V43.06c.371-4.8.457-9.627,2.685-12.912A12.854,12.854,0,0,1,72.1,24.435h.686a12.8,12.8,0,0,1,10.6,5.713c2.257,3.285,2.314,8.113,2.685,12.912,0,0,0,5.028.171,10.855Z" transform="translate(85.514 35.524)" fill="#1e2dbe"/>
      <path id="Pfad_175" data-name="Pfad 175" d="M99.831,96.955a21.167,21.167,0,0,1-5.113,7.513A12.6,12.6,0,0,1,88,106.724l-22.538,1.114H60.5s-3.8-.229-4-3.742V25.141c.2-3.514,4-3.742,4-3.742h4.97V16.8H35.33v4.6H40.3a4.2,4.2,0,0,1,4,3.742V104.1a4.2,4.2,0,0,1-4,3.742H35.33v4.6H98.117l4-14.568v-.514Z" transform="translate(64.671 29.305)" fill="#1e2dbe"/>
      <path id="Pfad_176" data-name="Pfad 176" d="M44.593,27.7c.171-2.857,3.342-3.085,3.342-3.085h4.142V20.76H26.94v3.856h4.142A3.456,3.456,0,0,1,34.4,27.7v50.5a3.456,3.456,0,0,1-3.314,3.228H26.94v3.714H52.078V81.433H47.936a3.485,3.485,0,0,1-3.342-3.114Z" transform="translate(49.094 36.657)" fill="#1e2dbe"/>
      <path id="Pfad_177" data-name="Pfad 177" d="M104.19,47.9V9.22h6.627V47.9Z" transform="translate(192.513 15.232)" fill="#1e2dbe"/>
      <path id="Pfad_178" data-name="Pfad 178" d="M126.175,41.552v-16.2c0-4.371-1.742-6.57-5.256-6.57s-5.713,2.142-5.713,6.456V41.552H108.75V13.3h6.427v2.657a9.284,9.284,0,0,1,7.456-3.314A9.8,9.8,0,0,1,129.86,15.5a11.94,11.94,0,0,1,2.857,8.8V41.638Z" transform="translate(200.979 21.577)" fill="#1e2dbe"/>
      <path id="Pfad_179" data-name="Pfad 179" d="M129,49.382c-4.371,0-6.57-2.4-6.57-7.227V26.1h-4.2V20.388h4.2v-8.57L129,8.79V20.445h6.542v5.713H129V40.812c0,1.8.8,2.714,2.371,2.714a9.169,9.169,0,0,0,4.428-1.257l-.771,5.713a12.911,12.911,0,0,1-6.027,1.4Z" transform="translate(218.579 14.434)" fill="#1e2dbe"/>
      <path id="Pfad_180" data-name="Pfad 180" d="M138.314,42.292a12.112,12.112,0,0,1-9.541-3.942A15.74,15.74,0,0,1,125.259,27.5,15.654,15.654,0,0,1,128.8,16.583a13.34,13.34,0,0,1,18.368-.6,13.169,13.169,0,0,1,3.456,9.884,33.013,33.013,0,0,1-.2,4H131.686a6.97,6.97,0,0,0,2.057,4.8,6.37,6.37,0,0,0,4.571,1.828,7.056,7.056,0,0,0,5.97-2.857l4.085,4.2a12.369,12.369,0,0,1-10.055,4.456Zm-6.57-17.682h12.483a6.656,6.656,0,0,0-1.885-4.6,5.713,5.713,0,0,0-4.028-1.6,6.77,6.77,0,0,0-4.57,1.543,6.341,6.341,0,0,0-2,4.628Z" transform="translate(231.574 21.523)" fill="#1e2dbe"/>
      <path id="Pfad_181" data-name="Pfad 181" d="M135.68,41.607V13.356h6.627v2.857a5.942,5.942,0,0,1,5.713-3.6,7.884,7.884,0,0,1,5.256,1.942l-.943,5.913a8.027,8.027,0,0,0-4.8-1.485,5.142,5.142,0,0,0-3.771,1.543,7.2,7.2,0,0,0-1.543,5.2v15.8Z" transform="translate(250.976 21.522)" fill="#1e2dbe"/>
      <path id="Pfad_182" data-name="Pfad 182" d="M160.356,41.552v-16.2c0-4.371-1.742-6.57-5.227-6.57s-5.713,2.142-5.713,6.456V41.552H142.96V13.3h6.456v2.657a9.284,9.284,0,0,1,7.456-3.314A9.741,9.741,0,0,1,164.1,15.5a11.94,11.94,0,0,1,2.857,8.8V41.638Z" transform="translate(264.491 21.577)" fill="#1e2dbe"/>
      <path id="Pfad_183" data-name="Pfad 183" d="M170.54,41.48V39.309a9.912,9.912,0,0,1-7.513,2.857,10.741,10.741,0,0,1-7.37-2.457,8.57,8.57,0,0,1-2.857-6.941,8.027,8.027,0,0,1,3.256-6.941,12.655,12.655,0,0,1,7.8-2.4,13.454,13.454,0,0,1,6.684,1.6V23.512A4.971,4.971,0,0,0,169.2,19.6a6.17,6.17,0,0,0-4.171-1.228,14.283,14.283,0,0,0-8.4,2.657l-2-5.227a19.139,19.139,0,0,1,11.055-3.114,17.4,17.4,0,0,1,3.885.371,11.712,11.712,0,0,1,3.485,1.4,6.913,6.913,0,0,1,2.857,3.314,14.282,14.282,0,0,1,1,5.713v18.2ZM164.2,36.452a8.4,8.4,0,0,0,6.284-2.714V30.082a12.854,12.854,0,0,0-5.713-1.143,8.17,8.17,0,0,0-4.2.943,3.114,3.114,0,0,0-1.6,2.857,3.2,3.2,0,0,0,1.314,2.714A6.37,6.37,0,0,0,164.2,36.452Z" transform="translate(282.73 21.65)" fill="#1e2dbe"/>
      <path id="Pfad_184" data-name="Pfad 184" d="M173.049,49.382c-4.371,0-6.57-2.4-6.57-7.227V26.1h-4.2V20.388h4.2v-8.57l6.427-3.028V20.445h6.513v5.713h-6.513V40.812c0,1.8.771,2.714,2.371,2.714a9.255,9.255,0,0,0,4.428-1.257l-.8,5.713A12.741,12.741,0,0,1,173.049,49.382Z" transform="translate(300.36 14.434)" fill="#1e2dbe"/>
      <path id="Pfad_185" data-name="Pfad 185" d="M176.213,15.374a3.628,3.628,0,0,1-2.714,1.143,3.685,3.685,0,0,1-2.857-1.143A3.742,3.742,0,0,1,169.5,12.66a3.685,3.685,0,0,1,1.143-2.714A3.771,3.771,0,0,1,173.5,8.833a3.756,3.756,0,0,1,3.8,3.828,3.8,3.8,0,0,1-1.085,2.714Zm-5.97,33.25V20.373h6.4V48.624Z" transform="translate(313.764 14.505)" fill="#1e2dbe"/>
      <path id="Pfad_186" data-name="Pfad 186" d="M186.607,42.214a12.055,12.055,0,0,1-9.455-3.913,15.8,15.8,0,0,1-3.485-10.826,15.825,15.825,0,0,1,3.485-10.855,13.283,13.283,0,0,1,18.939,0A15.711,15.711,0,0,1,199.6,27.474,15.8,15.8,0,0,1,196.12,38.3a12.169,12.169,0,0,1-9.512,3.913Zm0-6.17a5.713,5.713,0,0,0,4.77-2.285,10.027,10.027,0,0,0,1.743-6.284,10.341,10.341,0,0,0-1.743-6.37,6,6,0,0,0-9.484,0,10.369,10.369,0,0,0-1.743,6.342,10.169,10.169,0,0,0,1.714,6.256,5.713,5.713,0,0,0,4.742,2.314Z" transform="translate(321.452 21.602)" fill="#1e2dbe"/>
      <path id="Pfad_187" data-name="Pfad 187" d="M201.834,41.553v-16.2c0-4.371-1.771-6.57-5.256-6.57s-5.713,2.142-5.713,6.456V41.553H184.38V13.3h6.484v2.657a9.2,9.2,0,0,1,7.456-3.314,9.741,9.741,0,0,1,7.2,2.857,11.94,11.94,0,0,1,2.857,8.8V41.639Z" transform="translate(341.39 21.576)" fill="#1e2dbe"/>
      <path id="Pfad_188" data-name="Pfad 188" d="M211.979,41.535V39.364a10,10,0,0,1-7.513,2.857,10.855,10.855,0,0,1-7.4-2.457,8.57,8.57,0,0,1-2.857-6.941,8,8,0,0,1,3.228-6.941,12.74,12.74,0,0,1,7.827-2.4A13.454,13.454,0,0,1,211.95,25V23.482a4.971,4.971,0,0,0-1.371-3.913,6.113,6.113,0,0,0-4.171-1.228A14.283,14.283,0,0,0,198.01,21l-1.971-5.227a19.11,19.11,0,0,1,11.026-3.114,17.853,17.853,0,0,1,3.913.371,12.026,12.026,0,0,1,3.485,1.4,6.856,6.856,0,0,1,2.857,3.314,13.683,13.683,0,0,1,1,5.713v18.2Zm-6.313-5.028a8.57,8.57,0,0,0,6.313-2.714V30.137a13.083,13.083,0,0,0-5.713-1.143,8.313,8.313,0,0,0-4.2.943,3.114,3.114,0,0,0-1.6,2.857,3.228,3.228,0,0,0,1.343,2.714,6.256,6.256,0,0,0,3.856,1Z" transform="translate(359.61 21.595)" fill="#1e2dbe"/>
      <path id="Pfad_189" data-name="Pfad 189" d="M204.67,48.7V11.847l6.456-3.057V48.782Z" transform="translate(379.059 14.434)" fill="#1e2dbe"/>
      <path id="Pfad_190" data-name="Pfad 190" d="M104.09,67.266V28.56h6.627V60.9h18.825v6.37Z" transform="translate(192.327 51.138)" fill="#1e2dbe"/>
      <path id="Pfad_191" data-name="Pfad 191" d="M131.7,61.012V58.727a9.884,9.884,0,0,1-7.513,2.857,10.883,10.883,0,0,1-7.37-2.457,8.57,8.57,0,0,1-2.857-6.941,8.17,8.17,0,0,1,3.228-6.97,12.969,12.969,0,0,1,7.827-2.371A13.454,13.454,0,0,1,131.7,44.33V42.844a5.056,5.056,0,0,0-1.343-3.913,6.056,6.056,0,0,0-4.171-1.228,14.283,14.283,0,0,0-8.4,2.657l-2-5.256a21.538,21.538,0,0,1,14.94-2.857,11.826,11.826,0,0,1,3.485,1.428,6.77,6.77,0,0,1,2.857,3.314,14.082,14.082,0,0,1,1,5.713V60.9Zm-6.17-5.028a8.4,8.4,0,0,0,6.284-2.857V49.614a12.94,12.94,0,0,0-5.713-1.171,8.17,8.17,0,0,0-4.2.943,3.085,3.085,0,0,0-1.6,2.857,3.2,3.2,0,0,0,1.314,2.857,6.37,6.37,0,0,0,3.913.886Z" transform="translate(210.622 57.392)" fill="#1e2dbe"/>
      <path id="Pfad_192" data-name="Pfad 192" d="M137.082,68.666a7.57,7.57,0,0,1-6.256-2.857V67.98H124.37V31.017l6.456-2.857V41.986a7.97,7.97,0,0,1,6.37-2.857,10.426,10.426,0,0,1,8.57,3.971,16.682,16.682,0,0,1,3.257,10.741,16.825,16.825,0,0,1-3.285,11A10.483,10.483,0,0,1,137.082,68.666Zm-.771-6.2a5.228,5.228,0,0,0,4.542-2.285,11.026,11.026,0,0,0,1.571-6.342,10.683,10.683,0,0,0-1.6-6.4,5.2,5.2,0,0,0-4.513-2.2,6.142,6.142,0,0,0-5.485,2.857V59.868a6.027,6.027,0,0,0,5.485,2.6Z" transform="translate(229.978 50.395)" fill="#1e2dbe"/>
      <path id="Pfad_193" data-name="Pfad 193" d="M147.091,61.564a11.912,11.912,0,0,1-9.427-3.942A15.568,15.568,0,0,1,134.18,46.8a15.74,15.74,0,0,1,3.485-10.855,13.31,13.31,0,0,1,18.91,0A15.739,15.739,0,0,1,160.089,46.8a15.711,15.711,0,0,1-3.514,10.941,12.026,12.026,0,0,1-9.484,3.828Zm0-6.2a5.713,5.713,0,0,0,4.8-2.257,10.284,10.284,0,0,0,1.742-6.313,10.455,10.455,0,0,0-1.743-6.342,5.713,5.713,0,0,0-4.8-2.314,5.542,5.542,0,0,0-4.8,2.457,10.284,10.284,0,0,0-1.771,6.313,10.141,10.141,0,0,0,1.743,6.284A5.713,5.713,0,0,0,147.091,55.365Z" transform="translate(248.134 57.497)" fill="#1e2dbe"/>
      <path id="Pfad_194" data-name="Pfad 194" d="M162.289,60.471V57.615a8.855,8.855,0,0,1-7.4,3.371,9.884,9.884,0,0,1-7.256-2.857,11.912,11.912,0,0,1-2.857-8.8V32.22h6.427V48.36c0,4.371,1.771,6.57,5.313,6.57s5.713-2.142,5.713-6.456V32.22h6.456V60.471Z" transform="translate(267.787 57.933)" fill="#1e2dbe"/>
      <path id="Pfad_195" data-name="Pfad 195" d="M155.25,60.957V32.706h6.456v2.857a5.942,5.942,0,0,1,5.713-3.6,7.741,7.741,0,0,1,5.256,1.942l-.943,5.913a8.055,8.055,0,0,0-4.8-1.514,5.142,5.142,0,0,0-3.771,1.543,7.256,7.256,0,0,0-1.543,5.2V60.872Z" transform="translate(287.308 57.447)" fill="#1e2dbe"/>
      <path id="Pfad_196" data-name="Pfad 196" d="M120.542,87.6a17.739,17.739,0,0,1-6.513-1.143,13.826,13.826,0,0,1-4.828-3.114,17.482,17.482,0,0,1-3.2-4.57,20.852,20.852,0,0,1-1.857-5.4,30.937,30.937,0,0,1,0-11.426A20.851,20.851,0,0,1,106,56.55a17.823,17.823,0,0,1,3.2-4.542,13.883,13.883,0,0,1,4.828-3.142,17.739,17.739,0,0,1,6.513-1.143,16.882,16.882,0,0,1,7.884,1.742,13.454,13.454,0,0,1,5.313,4.685,23.453,23.453,0,0,1,2.857,6.4,28.565,28.565,0,0,1,0,14.283,23.279,23.279,0,0,1-2.857,6.37,13.769,13.769,0,0,1-5.313,4.713,17.139,17.139,0,0,1-7.884,1.685Zm0-6.342A8.941,8.941,0,0,0,125.256,80a8.769,8.769,0,0,0,3.171-3.371,17.138,17.138,0,0,0,1.685-4.342,19.825,19.825,0,0,0,.543-4.685,20.34,20.34,0,0,0-.543-4.828,16.71,16.71,0,0,0-1.685-4.342,8.4,8.4,0,0,0-3.142-3.256,8.827,8.827,0,0,0-4.742-1.228,8.255,8.255,0,0,0-5.913,2.257,12.055,12.055,0,0,0-3.285,5.17,21.053,21.053,0,0,0-.914,6.227,20.427,20.427,0,0,0,.572,4.8,16.14,16.14,0,0,0,1.685,4.369,8.4,8.4,0,0,0,3.142,3.256,8.8,8.8,0,0,0,4.713,1.228Z" transform="translate(191.443 86.706)" fill="#1e2dbe"/>
      <path id="Pfad_197" data-name="Pfad 197" d="M117.43,80.279V52.056h6.456v2.857a5.942,5.942,0,0,1,5.713-3.6,7.884,7.884,0,0,1,5.256,1.942l-.943,5.913a8.027,8.027,0,0,0-4.8-1.485,5.142,5.142,0,0,0-3.771,1.543,7.2,7.2,0,0,0-1.543,5.2v15.8Z" transform="translate(217.093 93.371)" fill="#1e2dbe"/>
      <path id="Pfad_198" data-name="Pfad 198" d="M135.454,91.3l-3.428-5.2a18.539,18.539,0,0,0,8.056-1.8,4.713,4.713,0,0,0,2.228-4.313V78.359a8.17,8.17,0,0,1-6.4,2.542,10.426,10.426,0,0,1-8.57-3.828A16.54,16.54,0,0,1,124.114,66.1a16.454,16.454,0,0,1,3.228-10.8,10.426,10.426,0,0,1,8.57-3.971,8.57,8.57,0,0,1,6.342,2.4V52.021h6.484V77.445a14.483,14.483,0,0,1-2.971,10.084A15.625,15.625,0,0,1,135.454,91.3ZM137,74.731a5.913,5.913,0,0,0,5.313-2.857V60.162A6.113,6.113,0,0,0,137,57.306a5.456,5.456,0,0,0-4.656,2.228,13.111,13.111,0,0,0,0,12.712A5.4,5.4,0,0,0,137,74.731Z" transform="translate(229.434 93.406)" fill="#1e2dbe"/>
      <path id="Pfad_199" data-name="Pfad 199" d="M152.009,80.221V77.964a9.969,9.969,0,0,1-7.513,2.857,10.741,10.741,0,0,1-7.37-2.457,8.57,8.57,0,0,1-2.857-6.913,8.113,8.113,0,0,1,3.228-6.8,12.8,12.8,0,0,1,7.827-2.371,13.454,13.454,0,0,1,6.684,1.485V62.282a5.142,5.142,0,0,0-1.343-3.942,6.2,6.2,0,0,0-4.171-1.2,14.283,14.283,0,0,0-8.4,2.657l-2-5.256a21.024,21.024,0,0,1,14.94-2.857,11.712,11.712,0,0,1,3.485,1.4,7.027,7.027,0,0,1,2.857,3.314,14.282,14.282,0,0,1,1,5.713V80.278Zm-6.284-5.028a8.341,8.341,0,0,0,6.284-2.714V68.852A12.94,12.94,0,0,0,146.3,67.68a8.169,8.169,0,0,0-4.2.943,3.057,3.057,0,0,0-1.6,2.857,3.142,3.142,0,0,0,1.314,2.685A6.17,6.17,0,0,0,145.725,75.193Z" transform="translate(248.329 93.429)" fill="#1e2dbe"/>
      <path id="Pfad_200" data-name="Pfad 200" d="M162.115,80.243v-16.2c0-4.371-1.743-6.57-5.256-6.57s-5.713,2.171-5.713,6.484V80.243H144.69V52.02h6.456v2.657a9.2,9.2,0,0,1,7.456-3.342,9.912,9.912,0,0,1,7.227,2.857,12,12,0,0,1,2.857,8.8V80.329Z" transform="translate(267.703 93.407)" fill="#1e2dbe"/>
      <path id="Pfad_201" data-name="Pfad 201" d="M161.518,54.183a3.657,3.657,0,0,1-2.857,1.114,3.856,3.856,0,0,1-3.856-3.856,3.571,3.571,0,0,1,1.143-2.857,3.713,3.713,0,0,1,2.714-1.114,4.072,4.072,0,0,1,2.857,6.713ZM155.548,87.4V59.182h6.484V87.4Z" transform="translate(286.468 86.245)" fill="#1e2dbe"/>
      <path id="Pfad_202" data-name="Pfad 202" d="M158.79,79.774v-5.2l14.883-17.282H159.99V51.58H181.7v4.97L166.931,74.061h14.711v5.713Z" transform="translate(293.88 93.876)" fill="#1e2dbe"/>
      <path id="Pfad_203" data-name="Pfad 203" d="M185.719,80.221V77.964a10,10,0,0,1-7.513,2.857,10.741,10.741,0,0,1-7.37-2.457,8.57,8.57,0,0,1-2.857-6.913,8.113,8.113,0,0,1,3.228-6.8,12.8,12.8,0,0,1,7.827-2.371,13.454,13.454,0,0,1,6.684,1.485V62.282a5.142,5.142,0,0,0-1.343-3.942,6.2,6.2,0,0,0-4.171-1.2,14.283,14.283,0,0,0-8.427,2.657l-1.971-5.256a21.024,21.024,0,0,1,14.94-2.857,12.026,12.026,0,0,1,3.485,1.4A7.027,7.027,0,0,1,191.09,56.4a14.282,14.282,0,0,1,1,5.713V80.278Zm-6.227-5.028a8.341,8.341,0,0,0,6.313-2.714V68.852a13.026,13.026,0,0,0-5.713-1.171,8.17,8.17,0,0,0-4.2.943,3.057,3.057,0,0,0-1.6,2.857,3.142,3.142,0,0,0,1.314,2.685,6.084,6.084,0,0,0,3.885,1.028Z" transform="translate(310.914 93.429)" fill="#1e2dbe"/>
      <path id="Pfad_204" data-name="Pfad 204" d="M188.249,88.1c-4.371,0-6.57-2.4-6.57-7.227V64.846h-4.2V59.133h4.342v-8.57l6.456-3.114V59.133h6.541v5.713h-6.541V79.615c0,1.8.8,2.685,2.371,2.685a8.855,8.855,0,0,0,4.428-1.257l-.771,5.713a12.569,12.569,0,0,1-6.056,1.343Z" transform="translate(328.579 86.208)" fill="#1e2dbe"/>
      <path id="Pfad_205" data-name="Pfad 205" d="M191.275,54.186A3.6,3.6,0,0,1,188.59,55.3a3.856,3.856,0,0,1-3.885-3.856,3.571,3.571,0,0,1,1.143-2.857,3.713,3.713,0,0,1,2.857-1.114,3.6,3.6,0,0,1,2.685,1.114,3.656,3.656,0,0,1,1.114,2.857,3.828,3.828,0,0,1-1.228,2.742Zm-5.713,33.222V59.185h6.484V87.408Z" transform="translate(341.979 86.242)" fill="#1e2dbe"/>
      <path id="Pfad_206" data-name="Pfad 206" d="M201.809,80.892a11.912,11.912,0,0,1-9.455-3.913,15.625,15.625,0,0,1-3.485-10.826A15.74,15.74,0,0,1,192.354,55.3a13.254,13.254,0,0,1,18.91,0,15.74,15.74,0,0,1,3.513,10.855,15.625,15.625,0,0,1-3.485,10.826,11.969,11.969,0,0,1-9.484,3.913Zm0-6.17a5.713,5.713,0,0,0,4.77-2.285,9.969,9.969,0,0,0,1.742-6.284,10.4,10.4,0,0,0-1.742-6.37,6,6,0,0,0-9.484,0,10.369,10.369,0,0,0-1.771,6.342,10.141,10.141,0,0,0,1.742,6.284A5.713,5.713,0,0,0,201.809,74.722Z" transform="translate(349.669 93.415)" fill="#1e2dbe"/>
      <path id="Pfad_207" data-name="Pfad 207" d="M216.986,80.243v-16.2c0-4.371-1.742-6.57-5.227-6.57s-5.713,2.171-5.713,6.484V80.243H199.59V52.02h6.456v2.657a9.2,9.2,0,0,1,7.456-3.342,9.855,9.855,0,0,1,7.227,2.857,12,12,0,0,1,2.857,8.8V80.329Z" transform="translate(369.628 93.407)" fill="#1e2dbe"/>
      <path id="Pfad_208" data-name="Pfad 208" d="M34.339,52.04c-1.057,1.828-1.457,2.628-1.457,2.628a3.714,3.714,0,0,1-4.6,1.771l-2.857-1.171a3.256,3.256,0,0,0-4.2,1.885l-2.314,6.084a3.256,3.256,0,0,0,1.885,4.2l3.057,1.171a3.828,3.828,0,0,1,2.257,4.342L24.77,79.577a3.742,3.742,0,0,1-3.742,3.114H17.743a3.285,3.285,0,0,0-3.371,3.142L14,92.26A3.256,3.256,0,0,0,17.143,95.6h3.285A3.828,3.828,0,0,1,24,98.973l.886,6.713a3.771,3.771,0,0,1-2.542,4.142l-3.171.971a3.256,3.256,0,0,0-2.142,4.085l2.857,9.341,17.6-5.427a71.1,71.1,0,0,1,56.331-97.38L89.728,3.45,80.216,5.678a3.228,3.228,0,0,0-2.457,3.885l.743,3.256A3.8,3.8,0,0,1,76.159,17.1L69.9,19.675a3.828,3.828,0,0,1-4.685-1.4l-1.743-2.857a3.256,3.256,0,0,0-4.485-1.057l-5.513,3.514a3.256,3.256,0,0,0-1.057,4.485l1.714,2.857a3.771,3.771,0,0,1-.8,4.828l-5.056,4.4a3.8,3.8,0,0,1-4.885.171l-2.542-2.057a3.228,3.228,0,0,0-4.57.486l-4.113,5.028a3.256,3.256,0,0,0,.457,4.6l2.542,2.057a3.685,3.685,0,0,1,.714,4.77S35.4,50.212,34.339,52.04Z" transform="translate(25.07 4.52)" fill="#1e2dbe"/>
      <path id="Pfad_209" data-name="Pfad 209" d="M90.207,85.107h3a3.714,3.714,0,0,1,3.8,3.028l.514,3.228a3.256,3.256,0,0,0,3.742,2.685l6.456-1.085A3.256,3.256,0,0,0,110.4,89.22l-.543-3.085a3.771,3.771,0,0,1,2.6-4.113l6.427-2.171a3.8,3.8,0,0,1,4.6,1.685L125,84.393a3.256,3.256,0,0,0,4.428,1.343l5.713-3.057a3.256,3.256,0,0,0,1.343-4.4l-1.543-2.857a3.828,3.828,0,0,1,1.114-4.77l5.37-4.113a3.771,3.771,0,0,1,4.885,0l2.428,2.257a3.256,3.256,0,0,0,4.685-.229l6.684-7.141L146.538,49A71.157,71.157,0,0,1,33.933,49L20.45,61.512l6.656,7.141a3.314,3.314,0,0,0,4.628.171l2.4-2.257a3.8,3.8,0,0,1,4.885,0l5.37,4.142A3.8,3.8,0,0,1,45.5,75.48l-1.543,2.857A3.314,3.314,0,0,0,45.3,82.764l5.713,3.057a3.228,3.228,0,0,0,4.4-1.343l1.543-2.857a3.8,3.8,0,0,1,4.6-1.685l6.427,2.171a3.771,3.771,0,0,1,2.6,4.028l-.514,3.228a3.257,3.257,0,0,0,2.685,3.742l6.427,1.028a3.256,3.256,0,0,0,3.742-2.685l.514-3.228a3.713,3.713,0,0,1,3.8-3.028S88.093,85.107,90.207,85.107Z" transform="translate(37.045 89.086)" fill="#1e2dbe"/>
      <path id="Pfad_210" data-name="Pfad 210" d="M107.3,52.079c-1.028-1.828-1.543-2.571-1.543-2.571a3.714,3.714,0,0,1,.743-4.8l2.542-2.057a3.256,3.256,0,0,0,.457-4.57l-4.056-5.056a3.285,3.285,0,0,0-4.6-.486l-2.514,2.085a3.828,3.828,0,0,1-4.885-.2L88.307,29.94A3.8,3.8,0,0,1,87.479,25l1.742-2.857a3.285,3.285,0,0,0-.914-4.285L82.594,14.4a3.314,3.314,0,0,0-4.513,1.057l-1.714,2.857a3.828,3.828,0,0,1-4.685,1.4l-6.227-2.628A3.8,3.8,0,0,1,63.141,12.8l.743-3.228A3.285,3.285,0,0,0,61.427,5.66l-9.512-2.2L47.83,21.4A71.128,71.128,0,0,1,104.1,118.893l17.6,5.456,2.857-9.369a3.256,3.256,0,0,0-2.171-4.056l-3.171-.971a3.8,3.8,0,0,1-2.542-4.171l.885-6.713a3.828,3.828,0,0,1,3.571-3.342h3.285a3.228,3.228,0,0,0,3.142-3.371l-.2-6.513a3.257,3.257,0,0,0-3.371-3.142h-3.256a3.8,3.8,0,0,1-3.856-3.114l-1.343-6.656a3.828,3.828,0,0,1,2.285-4.342l3.057-1.143a3.285,3.285,0,0,0,1.885-4.2l-2.314-6.084a3.314,3.314,0,0,0-4.228-1.914l-2.971,1.171a3.685,3.685,0,0,1-4.485-1.743S108.3,53.907,107.3,52.079Z" transform="translate(87.878 4.538)" fill="#1e2dbe"/>
      <path id="Pfad_211" data-name="Pfad 211" d="M9.22,19.94Z" transform="translate(16.196 35.134)" fill="#1e2dbe"/>
      <path id="Pfad_212" data-name="Pfad 212" d="M19,18.771l.257.286a22.681,22.681,0,0,1,6.713-3.142C43.681,10.8,42.8,4.688,50.422,1.031L50.079.66a11.912,11.912,0,0,1-6.256,1.857C23.028,2.774,24.713,14.914,19,18.771Z" transform="translate(34.353 -0.66)" fill="#1e2dbe"/>
      <path id="Pfad_213" data-name="Pfad 213" d="M11.8,39.087l.371.257a17.939,17.939,0,0,1,8.97-5.713c16.511-4.885,22.253-15.8,26.709-18.91l-.143-.257c-6.113,4.342-13.369,0-25.709,13.14l-.428-.371C31.6,15.12,31.853,6.893,36.481,2.409l-.229-.229C7,19.548,19.827,29.089,11.8,39.087Z" transform="translate(20.986 2.162)" fill="#1e2dbe"/>
      <path id="Pfad_214" data-name="Pfad 214" d="M22.676,8C-4.862,35.366,12.278,42.279,7.964,55.933H8.25a17.739,17.739,0,0,1,9.027-8.37c11.655-5.37,15.34-18.967,20-23.109l-.229-.2c-5.713,6.17-15.111,2.714-22.852,18.025l-.514-.257c6.17-13.34,3.285-25.423,9.17-33.736A1.8,1.8,0,0,0,22.676,8Z" transform="translate(11.31 12.967)" fill="#1e2dbe"/>
      <path id="Pfad_215" data-name="Pfad 215" d="M10.913,73.848h.4a17.139,17.139,0,0,1,5.97-14.083C30.366,47.654,28.138,36.913,33.508,28.572l-.371-.2c-4.171,7.113-19.4,14.883-20,25.709a3.942,3.942,0,0,1-.571,0C14.8,38.427,6.543,28,11.027,18.089l-.4-.229C-6.855,53.8,7.6,53.31,10.913,73.848Z" transform="translate(3.077 31.273)" fill="#1e2dbe"/>
      <path id="Pfad_216" data-name="Pfad 216" d="M21.023,84.62l.428-.143c-3.6-8.113,2.428-19.225,2.857-19.739,7.941-15.425,5.285-29.365,7.113-34.279h-.371C26.793,41.029,15.024,46.771,16.767,64.567H16.2C14.281,53.484,1.77,42.886,2.255,30.86H1.97C-5.829,73.594,16.367,73.308,21.023,84.62Z" transform="translate(-0.32 54.665)" fill="#1e2dbe"/>
      <path id="Pfad_217" data-name="Pfad 217" d="M36.97,96.007l.314-.257a23.738,23.738,0,0,1-5.056-19.539c3.714-21.31-3.256-25.166-3.256-34.821h-.343c-.314,10.8-11.426,22.852-1.343,38.049l-.486.314C15.746,63.614,6.976,67.556,1.806,51.5h0a1.2,1.2,0,0,0-.486,0C8.976,98.664,29.914,84.438,36.97,96.007Z" transform="translate(1.529 74.957)" fill="#1e2dbe"/>
      <path id="Pfad_218" data-name="Pfad 218" d="M70.163,98.449v-.457c-14.568,2.857-22,0-24.652-13.254-3.656-18.825-16.6-26.08-17.939-33.593h0a.771.771,0,0,0-.371,0h0c2.857,13.283-3.714,21.2,12.312,37.135l-.428.371c-15.425-12.2-26.023-7.713-32.136-16.2a1.057,1.057,0,0,0-.257.257C25.629,104.448,46.11,106.162,70.163,98.449Z" transform="translate(11.499 93.025)" fill="#1e2dbe"/>
      <path id="Pfad_219" data-name="Pfad 219" d="M16.31,73.023v-.171c19.6,11.426,39.992-4.513,64.9-5.085,6.227-.143,24.852,1,41.934,20.853L118.6,89.9c-5.713-9.8-14.283-16.882-22.253-18.853C73.784,65.338,73.5,86.448,48.275,86.763,29.707,87.02,17.053,73.765,16.31,73.023Z" transform="translate(29.359 123.908)" fill="#1e2dbe"/>
      <path id="Pfad_220" data-name="Pfad 220" d="M80.45,19.94Z" transform="translate(148.438 35.134)" fill="#1e2dbe"/>
      <path id="Pfad_221" data-name="Pfad 221" d="M80.45,19.94Z" transform="translate(148.438 35.134)" fill="#1e2dbe"/>
      <path id="Pfad_222" data-name="Pfad 222" d="M9.22,19.94Z" transform="translate(16.196 35.134)" fill="#1e2dbe"/>
      <path id="Pfad_223" data-name="Pfad 223" d="M80.45,19.94Z" transform="translate(148.438 35.134)" fill="#1e2dbe"/>
      <path id="Pfad_224" data-name="Pfad 224" d="M90.932,18.771l-.257.286a22.681,22.681,0,0,0-6.627-3.142C66.252,10.8,67.223,4.688,59.71,1.031L59.939.66a11.912,11.912,0,0,0,6.313,1.857C86.99,2.774,85.419,14.914,90.932,18.771Z" transform="translate(109.933 -0.66)" fill="#1e2dbe"/>
      <path id="Pfad_225" data-name="Pfad 225" d="M101.3,39.087l-.371.257a17.939,17.939,0,0,0-8.97-5.713c-16.511-4.885-22.253-15.8-26.709-18.91v-.257c6.113,4.342,13.369,0,25.709,13.14l.428-.371C81.361,15.12,81.1,6.893,76.476,2.409L76.7,2.18C106.1,19.548,93.273,29.089,101.3,39.087Z" transform="translate(120.219 2.162)" fill="#1e2dbe"/>
      <path id="Pfad_226" data-name="Pfad 226" d="M86.937,8c27.537,27.309,10.4,34.279,14.711,47.876h-.286a17.739,17.739,0,0,0-9.027-8.37C80.681,42.136,77,28.539,72.34,24.4l.229-.2c5.713,6.17,15.111,2.714,22.852,18.025l.514-.257c-6.17-13.34-3.285-25.423-9.17-33.736A1.8,1.8,0,0,1,86.937,8Z" transform="translate(133.382 12.967)" fill="#1e2dbe"/>
      <path id="Pfad_227" data-name="Pfad 227" d="M99.135,73.867h-.4a17.139,17.139,0,0,0-5.97-14.083C79.682,47.672,81.91,36.932,76.54,28.591l.4-.229c4.171,7.113,19.4,14.883,20,25.709a3.942,3.942,0,0,0,.571,0c-2.228-15.654,6.027-26.08,1.543-35.993l.4-.229C116.96,53.814,102.449,53.328,99.135,73.867Z" transform="translate(141.179 31.254)" fill="#1e2dbe"/>
      <path id="Pfad_228" data-name="Pfad 228" d="M88.765,84.62l-.286-.143c3.6-8.113-2.428-19.225-2.857-19.739C77.682,49.313,80.338,35.373,78.51,30.46h.371c4.256,10.569,16.025,16.311,14.283,34.107h.571c1.857-11.026,14.283-21.624,13.969-33.65h.2C115.617,73.594,93.421,73.308,88.765,84.62Z" transform="translate(144.837 54.665)" fill="#1e2dbe"/>
      <path id="Pfad_229" data-name="Pfad 229" d="M76.074,96.007l-.314-.257a23.738,23.738,0,0,0,5.056-19.539C77.1,54.9,84.015,51.045,84.187,41.39h.343c.314,10.8,11.426,22.852,1.343,38.049l.486.314c11.055-16.14,19.824-12.2,24.995-28.251h0a1.229,1.229,0,0,1,.457,0C104.04,98.664,83.13,84.438,76.074,96.007Z" transform="translate(139.731 74.957)" fill="#1e2dbe"/>
      <path id="Pfad_230" data-name="Pfad 230" d="M60.76,98.449v-.457c14.568,2.857,22,0,24.652-13.254,3.714-18.825,16.511-26.08,18-33.593h0a.771.771,0,0,1,.371,0h0c-2.857,13.283,3.714,21.2-12.312,37.135l.428.371c15.54-12.169,26.137-7.713,32.393-16.2l.257.257C105.294,104.448,84.841,106.162,60.76,98.449Z" transform="translate(111.883 93.025)" fill="#1e2dbe"/>
      <path id="Pfad_231" data-name="Pfad 231" d="M142.8,73.023v-.171c-19.6,11.426-39.992-4.513-64.9-5.085-6.227-.143-24.852,1-41.934,20.853L40.5,89.9c5.713-9.8,14.283-16.882,22.253-18.853,22.567-5.713,23,15.4,48.076,15.711C129.341,87.02,142.052,73.765,142.8,73.023Z" transform="translate(65.84 123.908)" fill="#1e2dbe"/>
      <path id="Pfad_232" data-name="Pfad 232" d="M9.22,19.94Z" transform="translate(16.196 35.134)" fill="#1e2dbe"/>
      <path id="Pfad_233" data-name="Pfad 233" d="M9.22,19.94Z" transform="translate(16.196 35.134)" fill="#1e2dbe"/>
      <path id="Pfad_234" data-name="Pfad 234" d="M80.45,19.94Z" transform="translate(148.438 35.134)" fill="#1e2dbe"/>
      <path id="Pfad_235" data-name="Pfad 235" d="M72.132,20.15h-.343A25.052,25.052,0,0,0,49.451,35.89a45.162,45.162,0,0,0-2.857,17.739,45.162,45.162,0,0,0,2.857,17.739c4.371,9.827,13.2,16.539,22.338,16.539h.343c9.17,0,17.968-6.713,22.338-16.539a45.7,45.7,0,0,0,2.857-17.739A45.705,45.705,0,0,0,94.47,35.89,25.023,25.023,0,0,0,72.132,20.15ZM86.243,54c0,5.884-.171,10.941-.171,10.941-.371,4.8-.428,9.627-2.657,12.912a12.8,12.8,0,0,1-10.626,5.713H72.1a12.8,12.8,0,0,1-10.626-5.713c-2.228-3.285-2.314-8.113-2.685-12.912V43.06c.371-4.8.457-9.627,2.685-12.912A12.854,12.854,0,0,1,72.1,24.435h.686a12.8,12.8,0,0,1,10.6,5.713c2.257,3.285,2.314,8.113,2.685,12.912,0,0,0,5.028.171,10.855Z" transform="translate(85.514 35.524)" fill="#1e2dbe"/>
      <path id="Pfad_236" data-name="Pfad 236" d="M99.831,96.955a21.167,21.167,0,0,1-5.113,7.513A12.6,12.6,0,0,1,88,106.724l-22.538,1.114H60.5s-3.8-.229-4-3.742V25.141c.2-3.514,4-3.742,4-3.742h4.97V16.8H35.33v4.6H40.3a4.2,4.2,0,0,1,4,3.742V104.1a4.2,4.2,0,0,1-4,3.742H35.33v4.6H98.117l4-14.568v-.514Z" transform="translate(64.671 29.305)" fill="#1e2dbe"/>
      <path id="Pfad_237" data-name="Pfad 237" d="M44.593,27.7c.171-2.857,3.342-3.085,3.342-3.085h4.142V20.76H26.94v3.856h4.142A3.456,3.456,0,0,1,34.4,27.7v50.5a3.456,3.456,0,0,1-3.314,3.228H26.94v3.714H52.078V81.433H47.936a3.485,3.485,0,0,1-3.342-3.114Z" transform="translate(49.094 36.657)" fill="#1e2dbe"/>
    </g>
  </g>
</svg>
